<svg width="55" height="55" viewBox="0 0 55 55" fill="none" xmlns="http://www.w3.org/2000/svg">
<g clip-path="url(#clip0_31_2)">
<path d="M6.875 55C5.05164 55 3.30295 54.2757 2.01364 52.9864C0.724328 51.697 0 49.9484 0 48.125V6.875C0 5.05164 0.724328 3.30295 2.01364 2.01364C3.30295 0.724328 5.05164 0 6.875 0L48.125 0C49.9484 0 51.697 0.724328 52.9864 2.01364C54.2757 3.30295 55 5.05164 55 6.875V48.125C55 49.9484 54.2757 51.697 52.9864 52.9864C51.697 54.2757 49.9484 55 48.125 55H6.875ZM29.2188 39.5312V19.6178L36.5956 26.9981C36.7554 27.1579 36.9451 27.2847 37.1539 27.3712C37.3627 27.4577 37.5865 27.5022 37.8125 27.5022C38.0385 27.5022 38.2623 27.4577 38.4711 27.3712C38.6799 27.2847 38.8696 27.1579 39.0294 26.9981C39.1892 26.8383 39.3159 26.6486 39.4024 26.4398C39.4889 26.231 39.5334 26.0072 39.5334 25.7812C39.5334 25.5553 39.4889 25.3315 39.4024 25.1227C39.3159 24.9139 39.1892 24.7242 39.0294 24.5644L28.7169 14.2519C28.5572 14.0918 28.3676 13.9648 28.1587 13.8782C27.9499 13.7915 27.7261 13.7469 27.5 13.7469C27.2739 13.7469 27.0501 13.7915 26.8413 13.8782C26.6324 13.9648 26.4428 14.0918 26.2831 14.2519L15.9706 24.5644C15.6479 24.8871 15.4666 25.3248 15.4666 25.7812C15.4666 26.2377 15.6479 26.6754 15.9706 26.9981C16.2934 27.3209 16.7311 27.5022 17.1875 27.5022C17.6439 27.5022 18.0816 27.3209 18.4044 26.9981L25.7812 19.6178V39.5312C25.7812 39.9871 25.9623 40.4243 26.2847 40.7466C26.607 41.0689 27.0442 41.25 27.5 41.25C27.9558 41.25 28.393 41.0689 28.7153 40.7466C29.0377 40.4243 29.2188 39.9871 29.2188 39.5312Z" fill="#5F0031"/>
</g>
<defs>
<clipPath id="clip0_31_2">
<rect width="55" height="55" fill="white"/>
</clipPath>
</defs>
</svg>
