<svg width="15" height="16" viewBox="0 0 15 16" fill="none" xmlns="http://www.w3.org/2000/svg">
<path d="M0.292893 7.29289C-0.0976311 7.68342 -0.0976311 8.31658 0.292893 8.70711L6.65685 15.0711C7.04738 15.4616 7.68054 15.4616 8.07107 15.0711C8.46159 14.6805 8.46159 14.0474 8.07107 13.6569L2.41421 8L8.07107 2.34315C8.46159 1.95262 8.46159 1.31946 8.07107 0.928932C7.68054 0.538408 7.04738 0.538408 6.65685 0.928932L0.292893 7.29289ZM2 8L2 7H1L1 8L1 9H2L2 8Z" fill="white"/>
<path d="M6.29289 7.29289C5.90237 7.68342 5.90237 8.31658 6.29289 8.70711L12.6569 15.0711C13.0474 15.4616 13.6805 15.4616 14.0711 15.0711C14.4616 14.6805 14.4616 14.0474 14.0711 13.6569L8.41421 8L14.0711 2.34315C14.4616 1.95262 14.4616 1.31946 14.0711 0.928932C13.6805 0.538408 13.0474 0.538408 12.6569 0.928932L6.29289 7.29289ZM8 8V7H7V8V9H8V8Z" fill="white"/>
</svg>
