<svg width="171" height="50" viewBox="0 0 171 50" fill="none" xmlns="http://www.w3.org/2000/svg">
<path d="M2.008 0.0079999C2.344 0.0239997 2.784 0.0399995 3.328 0.0559993C3.872 0.0719991 4.408 0.079999 4.936 0.079999C5.688 0.079999 6.408 0.0719991 7.096 0.0559993C7.784 0.0399995 8.272 0.0319996 8.56 0.0319996C10.496 0.0319996 11.944 0.472 12.904 1.352C13.864 2.232 14.344 3.368 14.344 4.76C14.344 5.336 14.248 5.944 14.056 6.584C13.864 7.208 13.528 7.792 13.048 8.336C12.584 8.864 11.944 9.296 11.128 9.632C10.312 9.968 9.28 10.136 8.032 10.136H5.728V9.656H7.792C8.928 9.656 9.792 9.44 10.384 9.008C10.992 8.576 11.4 8.008 11.608 7.304C11.832 6.6 11.944 5.84 11.944 5.024C11.944 3.504 11.64 2.368 11.032 1.616C10.44 0.863999 9.416 0.487999 7.96 0.487999C7.224 0.487999 6.744 0.624 6.52 0.896C6.296 1.168 6.184 1.72 6.184 2.552V14.456C6.184 15.032 6.24 15.464 6.352 15.752C6.48 16.04 6.72 16.232 7.072 16.328C7.424 16.424 7.936 16.488 8.608 16.52V17C8.192 16.968 7.664 16.952 7.024 16.952C6.384 16.936 5.736 16.928 5.08 16.928C4.456 16.928 3.872 16.936 3.328 16.952C2.784 16.952 2.344 16.968 2.008 17V16.52C2.552 16.488 2.96 16.424 3.232 16.328C3.52 16.232 3.712 16.04 3.808 15.752C3.904 15.464 3.952 15.032 3.952 14.456V2.552C3.952 1.96 3.904 1.528 3.808 1.256C3.712 0.967999 3.52 0.776 3.232 0.68C2.96 0.567999 2.552 0.503999 2.008 0.487999V0.0079999ZM21.3573 4.304C22.3813 4.304 23.3013 4.528 24.1173 4.976C24.9333 5.424 25.5813 6.128 26.0613 7.088C26.5573 8.048 26.8053 9.296 26.8053 10.832C26.8053 12.368 26.5573 13.616 26.0613 14.576C25.5813 15.52 24.9333 16.216 24.1173 16.664C23.3013 17.112 22.3813 17.336 21.3573 17.336C20.3493 17.336 19.4293 17.112 18.5973 16.664C17.7813 16.216 17.1253 15.52 16.6293 14.576C16.1493 13.616 15.9093 12.368 15.9093 10.832C15.9093 9.296 16.1493 8.048 16.6293 7.088C17.1253 6.128 17.7813 5.424 18.5973 4.976C19.4293 4.528 20.3493 4.304 21.3573 4.304ZM21.3573 4.784C20.4453 4.784 19.6933 5.256 19.1013 6.2C18.5253 7.144 18.2373 8.688 18.2373 10.832C18.2373 12.976 18.5253 14.52 19.1013 15.464C19.6933 16.392 20.4453 16.856 21.3573 16.856C22.2693 16.856 23.0133 16.392 23.5893 15.464C24.1813 14.52 24.4773 12.976 24.4773 10.832C24.4773 8.688 24.1813 7.144 23.5893 6.2C23.0133 5.256 22.2693 4.784 21.3573 4.784ZM33.7193 4.304C34.4393 4.304 35.0633 4.424 35.5913 4.664C36.1193 4.904 36.5273 5.232 36.8153 5.648C37.1033 6.064 37.2473 6.552 37.2473 7.112C37.2473 7.768 37.0553 8.32 36.6713 8.768C36.2873 9.2 35.8153 9.552 35.2553 9.824C34.6953 10.08 34.1433 10.272 33.5993 10.4C34.4793 10.432 35.2393 10.576 35.8793 10.832C36.5353 11.072 37.0393 11.424 37.3913 11.888C37.7593 12.336 37.9433 12.904 37.9433 13.592C37.9433 14.36 37.7033 15.024 37.2233 15.584C36.7433 16.144 36.1033 16.576 35.3033 16.88C34.5193 17.184 33.6713 17.336 32.7593 17.336C32.0713 17.336 31.4713 17.248 30.9593 17.072C30.4633 16.912 30.0313 16.712 29.6633 16.472C29.3433 16.248 29.0713 16 28.8473 15.728C28.6393 15.456 28.5353 15.144 28.5353 14.792C28.5353 14.408 28.6553 14.096 28.8953 13.856C29.1353 13.616 29.4393 13.496 29.8073 13.496C30.1753 13.496 30.4873 13.608 30.7433 13.832C30.9993 14.056 31.1273 14.376 31.1273 14.792C31.1273 15.128 31.0313 15.4 30.8393 15.608C30.6633 15.816 30.4233 15.952 30.1193 16.016C30.2633 16.256 30.6073 16.472 31.1513 16.664C31.6953 16.84 32.2393 16.928 32.7833 16.928C33.7593 16.928 34.4953 16.632 34.9913 16.04C35.4873 15.448 35.7353 14.696 35.7353 13.784C35.7353 12.888 35.5113 12.144 35.0633 11.552C34.6313 10.944 34.0153 10.632 33.2153 10.616C33.0553 10.696 32.8873 10.768 32.7113 10.832C32.5513 10.896 32.3833 10.928 32.2073 10.928C31.8553 10.928 31.6793 10.792 31.6793 10.52C31.6793 10.264 31.8633 10.136 32.2313 10.136C32.3913 10.136 32.5593 10.152 32.7353 10.184C32.9113 10.216 33.0793 10.248 33.2393 10.28C33.9753 10.056 34.4713 9.68 34.7273 9.152C34.9833 8.624 35.1113 8.04 35.1113 7.4C35.1113 6.616 34.9593 5.984 34.6553 5.504C34.3513 5.008 33.8793 4.76 33.2393 4.76C32.6633 4.76 32.1113 4.936 31.5833 5.288C31.0553 5.624 30.6233 6.104 30.2873 6.728C29.9673 7.352 29.8153 8.08 29.8313 8.912H29.2793C29.3113 8.144 29.3193 7.48 29.3033 6.92C29.2873 6.344 29.2633 5.856 29.2313 5.456C29.2153 5.056 29.1913 4.736 29.1593 4.496H29.7113C29.7593 4.848 29.8153 5.112 29.8793 5.288C29.9593 5.464 30.0793 5.552 30.2393 5.552C30.3353 5.552 30.4473 5.512 30.5753 5.432C30.7193 5.352 30.8793 5.256 31.0553 5.144C31.3433 4.952 31.6873 4.768 32.0873 4.592C32.5033 4.4 33.0473 4.304 33.7193 4.304ZM45.3544 4.664V5.168C44.6984 5.168 44.2264 5.288 43.9384 5.528C43.6664 5.768 43.5304 6.224 43.5304 6.896V14.768C43.5304 15.408 43.6024 15.856 43.7464 16.112C43.9064 16.368 44.1784 16.496 44.5624 16.496C45.4264 16.496 46.0824 16.352 46.5304 16.064C46.9944 15.776 47.3144 15.392 47.4904 14.912C47.6664 14.432 47.7544 13.92 47.7544 13.376C47.7544 12.272 47.4424 11.472 46.8184 10.976C46.2104 10.464 45.1944 10.208 43.7704 10.208C43.4984 10.208 43.2184 10.208 42.9304 10.208C42.6424 10.208 42.3624 10.208 42.0904 10.208L42.0424 9.8C42.5704 9.8 43.0904 9.8 43.6024 9.8C44.1304 9.8 44.6584 9.8 45.1864 9.8C46.9304 9.8 48.1704 10.128 48.9064 10.784C49.6424 11.424 50.0104 12.24 50.0104 13.232C50.0104 13.824 49.8424 14.408 49.5064 14.984C49.1864 15.56 48.6424 16.04 47.8744 16.424C47.1224 16.808 46.1064 17 44.8264 17C44.4904 17 44.1064 16.984 43.6744 16.952C43.2424 16.92 42.8104 16.904 42.3784 16.904C41.8824 16.904 41.3544 16.92 40.7944 16.952C40.2344 16.968 39.8184 16.984 39.5464 17V16.496C40.2024 16.496 40.6664 16.376 40.9384 16.136C41.2264 15.896 41.3704 15.44 41.3704 14.768V6.896C41.3704 6.224 41.2504 5.768 41.0104 5.528C40.7704 5.288 40.3624 5.168 39.7864 5.168V4.664C40.0424 4.68 40.4184 4.704 40.9144 4.736C41.4264 4.752 41.9464 4.76 42.4744 4.76C43.0024 4.76 43.5464 4.752 44.1064 4.736C44.6664 4.704 45.0824 4.68 45.3544 4.664ZM56.2024 4.664V5.168C55.6264 5.168 55.2184 5.288 54.9784 5.528C54.7384 5.768 54.6184 6.224 54.6184 6.896V14.768C54.6184 15.44 54.7544 15.896 55.0264 16.136C55.3144 16.376 55.7864 16.496 56.4424 16.496V17C56.1704 16.984 55.7464 16.968 55.1704 16.952C54.5944 16.92 54.0424 16.904 53.5144 16.904C53.0344 16.904 52.5384 16.92 52.0264 16.952C51.5144 16.968 51.1304 16.984 50.8744 17V16.496C51.4504 16.496 51.8584 16.376 52.0984 16.136C52.3384 15.896 52.4584 15.44 52.4584 14.768V6.896C52.4584 6.224 52.3384 5.768 52.0984 5.528C51.8584 5.288 51.4504 5.168 50.8744 5.168V4.664C51.1304 4.68 51.5144 4.704 52.0264 4.736C52.5384 4.752 53.0344 4.76 53.5144 4.76C54.0424 4.76 54.5544 4.752 55.0504 4.736C55.5624 4.704 55.9464 4.68 56.2024 4.664ZM77.3905 4.664V5.168C76.7345 5.168 76.2625 5.288 75.9745 5.528C75.7025 5.768 75.5665 6.224 75.5665 6.896V14.768C75.5665 15.44 75.7025 15.896 75.9745 16.136C76.2625 16.376 76.7345 16.496 77.3905 16.496V17C77.1185 16.984 76.7025 16.968 76.1425 16.952C75.5825 16.92 75.0385 16.904 74.5105 16.904C73.9825 16.904 73.4625 16.92 72.9505 16.952C72.4545 16.968 72.0785 16.984 71.8225 17V16.496C72.3985 16.496 72.8065 16.376 73.0465 16.136C73.2865 15.896 73.4065 15.44 73.4065 14.768V6.896C73.4065 6.224 73.2865 5.768 73.0465 5.528C72.8065 5.288 72.3985 5.168 71.8225 5.168V4.664C72.0785 4.68 72.4545 4.704 72.9505 4.736C73.4625 4.752 73.9825 4.76 74.5105 4.76C75.0385 4.76 75.5825 4.752 76.1425 4.736C76.7025 4.704 77.1185 4.68 77.3905 4.664ZM69.3265 4.664V5.168C68.7505 5.168 68.3425 5.288 68.1025 5.528C67.8625 5.768 67.7425 6.224 67.7425 6.896V14.768C67.7425 15.44 67.8625 15.896 68.1025 16.136C68.3425 16.376 68.7505 16.496 69.3265 16.496V17C69.0705 16.984 68.6865 16.968 68.1745 16.952C67.6785 16.92 67.1665 16.904 66.6385 16.904C66.1105 16.904 65.5665 16.92 65.0065 16.952C64.4465 16.968 64.0305 16.984 63.7585 17V16.496C64.4145 16.496 64.8785 16.376 65.1505 16.136C65.4385 15.896 65.5825 15.44 65.5825 14.768V6.896C65.5825 6.224 65.4385 5.768 65.1505 5.528C64.8785 5.288 64.4145 5.168 63.7585 5.168V4.664C64.0305 4.68 64.4465 4.704 65.0065 4.736C65.5665 4.752 66.1105 4.76 66.6385 4.76C67.1665 4.76 67.6785 4.752 68.1745 4.736C68.6865 4.704 69.0705 4.68 69.3265 4.664ZM73.6465 6.344L74.0305 6.608L67.4305 15.728L67.0465 15.44L73.6465 6.344ZM84.1099 4.304C84.8299 4.304 85.4539 4.424 85.9819 4.664C86.5099 4.904 86.9179 5.232 87.2059 5.648C87.4939 6.064 87.6379 6.552 87.6379 7.112C87.6379 7.768 87.4459 8.32 87.0619 8.768C86.6779 9.2 86.2059 9.552 85.6459 9.824C85.0859 10.08 84.5339 10.272 83.9899 10.4C84.8699 10.432 85.6299 10.576 86.2699 10.832C86.9259 11.072 87.4299 11.424 87.7819 11.888C88.1499 12.336 88.3339 12.904 88.3339 13.592C88.3339 14.36 88.0939 15.024 87.6139 15.584C87.1339 16.144 86.4939 16.576 85.6939 16.88C84.9099 17.184 84.0619 17.336 83.1499 17.336C82.4619 17.336 81.8619 17.248 81.3499 17.072C80.8539 16.912 80.4219 16.712 80.0539 16.472C79.7339 16.248 79.4619 16 79.2379 15.728C79.0299 15.456 78.9259 15.144 78.9259 14.792C78.9259 14.408 79.0459 14.096 79.2859 13.856C79.5259 13.616 79.8299 13.496 80.1979 13.496C80.5659 13.496 80.8779 13.608 81.1339 13.832C81.3899 14.056 81.5179 14.376 81.5179 14.792C81.5179 15.128 81.4219 15.4 81.2299 15.608C81.0539 15.816 80.8139 15.952 80.5099 16.016C80.6539 16.256 80.9979 16.472 81.5419 16.664C82.0859 16.84 82.6299 16.928 83.1739 16.928C84.1499 16.928 84.8859 16.632 85.3819 16.04C85.8779 15.448 86.1259 14.696 86.1259 13.784C86.1259 12.888 85.9019 12.144 85.4539 11.552C85.0219 10.944 84.4059 10.632 83.6059 10.616C83.4459 10.696 83.2779 10.768 83.1019 10.832C82.9419 10.896 82.7739 10.928 82.5979 10.928C82.2459 10.928 82.0699 10.792 82.0699 10.52C82.0699 10.264 82.2539 10.136 82.6219 10.136C82.7819 10.136 82.9499 10.152 83.1259 10.184C83.3019 10.216 83.4699 10.248 83.6299 10.28C84.3659 10.056 84.8619 9.68 85.1179 9.152C85.3739 8.624 85.5019 8.04 85.5019 7.4C85.5019 6.616 85.3499 5.984 85.0459 5.504C84.7419 5.008 84.2699 4.76 83.6299 4.76C83.0539 4.76 82.5019 4.936 81.9739 5.288C81.4459 5.624 81.0139 6.104 80.6779 6.728C80.3579 7.352 80.2059 8.08 80.2219 8.912H79.6699C79.7019 8.144 79.7099 7.48 79.6939 6.92C79.6779 6.344 79.6539 5.856 79.6219 5.456C79.6059 5.056 79.5819 4.736 79.5499 4.496H80.1019C80.1499 4.848 80.2059 5.112 80.2699 5.288C80.3499 5.464 80.4699 5.552 80.6299 5.552C80.7259 5.552 80.8379 5.512 80.9659 5.432C81.1099 5.352 81.2699 5.256 81.4459 5.144C81.7339 4.952 82.0779 4.768 82.4779 4.592C82.8939 4.4 83.4379 4.304 84.1099 4.304ZM8.752 31.888L14.608 46.984C14.848 47.592 15.12 48 15.424 48.208C15.728 48.4 16.008 48.504 16.264 48.52V49C15.944 48.968 15.552 48.952 15.088 48.952C14.624 48.936 14.16 48.928 13.696 48.928C13.072 48.928 12.488 48.936 11.944 48.952C11.4 48.952 10.96 48.968 10.624 49V48.52C11.44 48.488 11.96 48.352 12.184 48.112C12.408 47.856 12.36 47.32 12.04 46.504L7.576 34.576L7.96 34.264L3.784 45.112C3.528 45.752 3.376 46.296 3.328 46.744C3.28 47.176 3.32 47.52 3.448 47.776C3.592 48.032 3.824 48.216 4.144 48.328C4.48 48.44 4.896 48.504 5.392 48.52V49C4.944 48.968 4.472 48.952 3.976 48.952C3.496 48.936 3.048 48.928 2.632 48.928C2.232 48.928 1.888 48.936 1.6 48.952C1.328 48.952 1.072 48.968 0.832 49V48.52C1.152 48.44 1.48 48.256 1.816 47.968C2.152 47.664 2.456 47.152 2.728 46.432L8.368 31.888C8.432 31.888 8.496 31.888 8.56 31.888C8.624 31.888 8.688 31.888 8.752 31.888ZM11.68 42.088V42.568H4.528L4.768 42.088H11.68ZM27.9421 36.664C27.8781 37.224 27.8301 37.76 27.7981 38.272C27.7821 38.784 27.7741 39.176 27.7741 39.448C27.7741 39.736 27.7821 40.016 27.7981 40.288C27.8141 40.544 27.8301 40.76 27.8461 40.936H27.2941C27.2141 39.832 27.0461 39.008 26.7901 38.464C26.5341 37.92 26.1821 37.568 25.7341 37.408C25.2861 37.232 24.7341 37.144 24.0781 37.144H23.1421V46.528C23.1421 47.312 23.3661 47.84 23.8141 48.112C24.2781 48.368 24.9021 48.496 25.6861 48.496V49C25.3181 48.984 24.8061 48.968 24.1501 48.952C23.5101 48.92 22.8141 48.904 22.0621 48.904C21.3261 48.904 20.6301 48.92 19.9741 48.952C19.3181 48.968 18.8061 48.984 18.4381 49V48.496C19.2381 48.496 19.8621 48.368 20.3101 48.112C20.7581 47.84 20.9821 47.312 20.9821 46.528V37.144H19.8061C19.1501 37.144 18.6141 37.232 18.1981 37.408C17.7981 37.584 17.4861 37.944 17.2621 38.488C17.0541 39.032 16.9101 39.856 16.8301 40.96H16.2781C16.3101 40.784 16.3261 40.568 16.3261 40.312C16.3421 40.04 16.3501 39.76 16.3501 39.472C16.3501 39.2 16.3341 38.808 16.3021 38.296C16.2861 37.784 16.2461 37.248 16.1821 36.688H18.4861C19.0301 36.688 19.6061 36.696 20.2141 36.712C20.8381 36.728 21.4461 36.736 22.0381 36.736C22.6461 36.736 23.2621 36.728 23.8861 36.712C24.5101 36.68 25.0941 36.664 25.6381 36.664H27.9421ZM39.5035 36.664V37.168C38.8475 37.168 38.3755 37.288 38.0875 37.528C37.8155 37.768 37.6795 38.224 37.6795 38.896V46.768C37.6795 47.44 37.8155 47.896 38.0875 48.136C38.3755 48.376 38.8475 48.496 39.5035 48.496V49C39.2315 48.984 38.8315 48.968 38.3035 48.952C37.7755 48.92 37.1995 48.904 36.5755 48.904C35.9515 48.904 35.3195 48.92 34.6795 48.952C34.0555 48.968 33.5675 48.984 33.2155 49V48.496C33.9355 48.496 34.4955 48.384 34.8955 48.16C35.3115 47.92 35.5195 47.456 35.5195 46.768V38.896C35.5195 38.224 35.3995 37.768 35.1595 37.528C34.9195 37.288 34.5115 37.168 33.9355 37.168H33.7195C33.3195 37.168 33.0555 37.288 32.9275 37.528C32.7995 37.768 32.7035 38.224 32.6395 38.896C32.5115 40.384 32.3515 41.808 32.1595 43.168C31.9835 44.512 31.6795 45.728 31.2475 46.816C31.0875 47.2 30.8875 47.592 30.6475 47.992C30.4075 48.376 30.1115 48.696 29.7595 48.952C29.4235 49.208 29.0155 49.336 28.5355 49.336C28.2475 49.336 27.9755 49.28 27.7195 49.168C27.4635 49.072 27.2555 48.92 27.0955 48.712C26.9355 48.488 26.8555 48.216 26.8555 47.896C26.8555 47.496 26.9755 47.184 27.2155 46.96C27.4555 46.736 27.7675 46.624 28.1515 46.624C28.4875 46.624 28.7675 46.72 28.9915 46.912C29.2315 47.104 29.3515 47.392 29.3515 47.776C29.3515 48.032 29.2795 48.264 29.1355 48.472C28.9915 48.664 28.7595 48.824 28.4395 48.952C28.4715 48.968 28.5115 48.976 28.5595 48.976C28.6235 48.976 28.6635 48.976 28.6795 48.976C29.0795 48.976 29.4155 48.848 29.6875 48.592C29.9755 48.32 30.2155 48.008 30.4075 47.656C30.6155 47.288 30.7675 46.968 30.8635 46.696C31.1195 46.024 31.3355 45.272 31.5115 44.44C31.6875 43.608 31.8315 42.72 31.9435 41.776C32.0555 40.832 32.1435 39.872 32.2075 38.896C32.2555 38.224 32.1115 37.768 31.7755 37.528C31.4555 37.288 30.9675 37.168 30.3115 37.168V36.664C30.4395 36.68 30.6395 36.704 30.9115 36.736C31.1995 36.752 31.5435 36.76 31.9435 36.76C32.2635 36.76 32.5915 36.76 32.9275 36.76C33.2795 36.76 33.6315 36.76 33.9835 36.76C34.2875 36.76 34.5675 36.76 34.8235 36.76C35.0795 36.76 35.3515 36.76 35.6395 36.76C35.9275 36.76 36.2475 36.76 36.5995 36.76C36.9675 36.76 37.3355 36.752 37.7035 36.736C38.0875 36.72 38.4395 36.704 38.7595 36.688C39.0795 36.672 39.3275 36.664 39.5035 36.664ZM44.3149 49.168C43.6589 49.168 43.0909 49.048 42.6109 48.808C42.1309 48.552 41.7629 48.2 41.5069 47.752C41.2669 47.304 41.1469 46.784 41.1469 46.192C41.1469 45.488 41.3069 44.912 41.6269 44.464C41.9629 44.016 42.3869 43.656 42.8989 43.384C43.4109 43.112 43.9469 42.888 44.5069 42.712C45.0829 42.52 45.6269 42.344 46.1389 42.184C46.6509 42.008 47.0669 41.808 47.3869 41.584C47.7229 41.36 47.8909 41.064 47.8909 40.696V39.208C47.8909 38.536 47.7869 38.024 47.5789 37.672C47.3869 37.32 47.1229 37.088 46.7869 36.976C46.4509 36.848 46.0749 36.784 45.6589 36.784C45.2589 36.784 44.8269 36.84 44.3629 36.952C43.9149 37.064 43.5549 37.296 43.2829 37.648C43.5869 37.712 43.8509 37.872 44.0749 38.128C44.2989 38.384 44.4109 38.712 44.4109 39.112C44.4109 39.512 44.2829 39.832 44.0269 40.072C43.7709 40.296 43.4429 40.408 43.0429 40.408C42.5789 40.408 42.2349 40.264 42.0109 39.976C41.8029 39.672 41.6989 39.336 41.6989 38.968C41.6989 38.552 41.8029 38.216 42.0109 37.96C42.2189 37.704 42.4829 37.464 42.8029 37.24C43.1709 36.984 43.6429 36.768 44.2189 36.592C44.8109 36.4 45.4749 36.304 46.2109 36.304C46.8669 36.304 47.4269 36.384 47.8909 36.544C48.3549 36.688 48.7389 36.904 49.0429 37.192C49.4589 37.576 49.7309 38.048 49.8589 38.608C49.9869 39.152 50.0509 39.808 50.0509 40.576V47.248C50.0509 47.648 50.1069 47.936 50.2189 48.112C50.3469 48.288 50.5389 48.376 50.7949 48.376C50.9709 48.376 51.1389 48.336 51.2989 48.256C51.4589 48.176 51.6509 48.048 51.8749 47.872L52.1389 48.28C51.8029 48.536 51.4829 48.752 51.1789 48.928C50.8749 49.088 50.4669 49.168 49.9549 49.168C49.4909 49.168 49.1069 49.088 48.8029 48.928C48.4989 48.768 48.2669 48.536 48.1069 48.232C47.9629 47.912 47.8909 47.512 47.8909 47.032C47.4589 47.752 46.9389 48.288 46.3309 48.64C45.7389 48.992 45.0669 49.168 44.3149 49.168ZM45.1789 48.208C45.7069 48.208 46.1949 48.056 46.6429 47.752C47.1069 47.448 47.5229 46.992 47.8909 46.384V41.68C47.6989 41.952 47.4189 42.184 47.0509 42.376C46.6829 42.552 46.2829 42.736 45.8509 42.928C45.4189 43.104 45.0029 43.32 44.6029 43.576C44.2189 43.816 43.8989 44.136 43.6429 44.536C43.3869 44.936 43.2589 45.456 43.2589 46.096C43.2589 46.736 43.4269 47.248 43.7629 47.632C44.1149 48.016 44.5869 48.208 45.1789 48.208ZM58.8601 36.304C59.3721 36.304 59.8681 36.368 60.3481 36.496C60.8281 36.624 61.2601 36.816 61.6441 37.072C62.0121 37.312 62.2921 37.592 62.4841 37.912C62.6761 38.216 62.7721 38.552 62.7721 38.92C62.7721 39.352 62.6521 39.688 62.4121 39.928C62.1721 40.152 61.8681 40.264 61.5001 40.264C61.1481 40.264 60.8361 40.16 60.5641 39.952C60.3081 39.744 60.1801 39.448 60.1801 39.064C60.1801 38.696 60.2761 38.4 60.4681 38.176C60.6761 37.952 60.9161 37.808 61.1881 37.744C61.0281 37.456 60.7401 37.216 60.3241 37.024C59.9241 36.832 59.4921 36.736 59.0281 36.736C58.6281 36.736 58.2281 36.832 57.8281 37.024C57.4281 37.216 57.0601 37.536 56.7241 37.984C56.3881 38.416 56.1161 39.016 55.9081 39.784C55.7001 40.536 55.5961 41.48 55.5961 42.616C55.5961 44.024 55.7561 45.144 56.0761 45.976C56.3961 46.808 56.8121 47.408 57.3241 47.776C57.8521 48.128 58.4281 48.304 59.0521 48.304C59.4681 48.304 59.8921 48.224 60.3241 48.064C60.7561 47.904 61.1641 47.648 61.5481 47.296C61.9321 46.928 62.2601 46.44 62.5321 45.832L62.9881 46C62.8281 46.512 62.5641 47.032 62.1961 47.56C61.8281 48.072 61.3481 48.496 60.7561 48.832C60.1641 49.168 59.4361 49.336 58.5721 49.336C57.5801 49.336 56.6841 49.08 55.8841 48.568C55.0841 48.056 54.4441 47.328 53.9641 46.384C53.5001 45.424 53.2681 44.288 53.2681 42.976C53.2681 41.664 53.5001 40.512 53.9641 39.52C54.4441 38.512 55.1081 37.728 55.9561 37.168C56.8041 36.592 57.7721 36.304 58.8601 36.304ZM77.8039 36.664V37.168C77.1479 37.168 76.6759 37.288 76.3879 37.528C76.1159 37.768 75.9799 38.224 75.9799 38.896V46.768C75.9799 47.44 76.1159 47.896 76.3879 48.136C76.6759 48.376 77.1479 48.496 77.8039 48.496V49C77.5319 48.984 77.1159 48.968 76.5559 48.952C75.9959 48.92 75.4519 48.904 74.9239 48.904C74.3959 48.904 73.8759 48.92 73.3639 48.952C72.8679 48.968 72.4919 48.984 72.2359 49V48.496C72.8119 48.496 73.2199 48.376 73.4599 48.136C73.6999 47.896 73.8199 47.44 73.8199 46.768V38.896C73.8199 38.224 73.6999 37.768 73.4599 37.528C73.2199 37.288 72.8119 37.168 72.2359 37.168V36.664C72.4919 36.68 72.8679 36.704 73.3639 36.736C73.8759 36.752 74.3959 36.76 74.9239 36.76C75.4519 36.76 75.9959 36.752 76.5559 36.736C77.1159 36.704 77.5319 36.68 77.8039 36.664ZM70.0999 36.664V37.168C69.5239 37.168 69.1159 37.288 68.8759 37.528C68.6359 37.768 68.5159 38.224 68.5159 38.896V46.768C68.5159 47.44 68.6359 47.896 68.8759 48.136C69.1159 48.376 69.5239 48.496 70.0999 48.496V49C69.8439 48.984 69.4599 48.968 68.9479 48.952C68.4519 48.92 67.9399 48.904 67.4119 48.904C66.8839 48.904 66.3399 48.92 65.7799 48.952C65.2199 48.968 64.8039 48.984 64.5319 49V48.496C65.1879 48.496 65.6519 48.376 65.9239 48.136C66.2119 47.896 66.3559 47.44 66.3559 46.768V38.896C66.3559 38.224 66.2119 37.768 65.9239 37.528C65.6519 37.288 65.1879 37.168 64.5319 37.168V36.664C64.8039 36.68 65.2199 36.704 65.7799 36.736C66.3399 36.752 66.8839 36.76 67.4119 36.76C67.9399 36.76 68.4519 36.752 68.9479 36.736C69.4599 36.704 69.8439 36.68 70.0999 36.664ZM74.4919 42.4V42.88H67.7239V42.4H74.4919ZM84.9638 36.664V37.168C84.3078 37.168 83.8358 37.288 83.5478 37.528C83.2758 37.768 83.1398 38.224 83.1398 38.896V46.768C83.1398 47.408 83.2118 47.856 83.3558 48.112C83.5158 48.368 83.7878 48.496 84.1718 48.496C85.0358 48.496 85.6918 48.352 86.1398 48.064C86.6038 47.776 86.9238 47.392 87.0998 46.912C87.2758 46.432 87.3638 45.92 87.3638 45.376C87.3638 44.272 87.0518 43.472 86.4278 42.976C85.8198 42.464 84.8038 42.208 83.3798 42.208C83.1078 42.208 82.8278 42.208 82.5398 42.208C82.2518 42.208 81.9718 42.208 81.6998 42.208L81.6518 41.8C82.1798 41.8 82.6998 41.8 83.2118 41.8C83.7398 41.8 84.2678 41.8 84.7958 41.8C86.5398 41.8 87.7798 42.128 88.5158 42.784C89.2518 43.424 89.6198 44.24 89.6198 45.232C89.6198 45.824 89.4518 46.408 89.1158 46.984C88.7958 47.56 88.2518 48.04 87.4838 48.424C86.7318 48.808 85.7158 49 84.4358 49C84.0998 49 83.7158 48.984 83.2838 48.952C82.8518 48.92 82.4198 48.904 81.9878 48.904C81.4918 48.904 80.9638 48.92 80.4038 48.952C79.8438 48.968 79.4278 48.984 79.1558 49V48.496C79.8118 48.496 80.2758 48.376 80.5478 48.136C80.8358 47.896 80.9798 47.44 80.9798 46.768V38.896C80.9798 38.224 80.8598 37.768 80.6198 37.528C80.3798 37.288 79.9718 37.168 79.3958 37.168V36.664C79.6518 36.68 80.0278 36.704 80.5238 36.736C81.0358 36.752 81.5558 36.76 82.0838 36.76C82.6118 36.76 83.1558 36.752 83.7158 36.736C84.2758 36.704 84.6918 36.68 84.9638 36.664ZM95.8118 36.664V37.168C95.2358 37.168 94.8278 37.288 94.5878 37.528C94.3478 37.768 94.2278 38.224 94.2278 38.896V46.768C94.2278 47.44 94.3638 47.896 94.6358 48.136C94.9238 48.376 95.3958 48.496 96.0518 48.496V49C95.7798 48.984 95.3558 48.968 94.7798 48.952C94.2038 48.92 93.6518 48.904 93.1238 48.904C92.6438 48.904 92.1478 48.92 91.6358 48.952C91.1238 48.968 90.7398 48.984 90.4838 49V48.496C91.0598 48.496 91.4678 48.376 91.7078 48.136C91.9478 47.896 92.0678 47.44 92.0678 46.768V38.896C92.0678 38.224 91.9478 37.768 91.7078 37.528C91.4678 37.288 91.0598 37.168 90.4838 37.168V36.664C90.7398 36.68 91.1238 36.704 91.6358 36.736C92.1478 36.752 92.6438 36.76 93.1238 36.76C93.6518 36.76 94.1638 36.752 94.6598 36.736C95.1718 36.704 95.5558 36.68 95.8118 36.664ZM101.783 36.64V37.144C101.479 37.144 101.223 37.216 101.015 37.36C100.807 37.504 100.783 37.704 100.943 37.96L107.351 47.296C107.623 47.696 107.863 47.984 108.071 48.16C108.279 48.32 108.535 48.432 108.839 48.496V49C108.679 48.984 108.431 48.968 108.095 48.952C107.775 48.92 107.455 48.904 107.135 48.904C106.639 48.904 106.103 48.92 105.527 48.952C104.967 48.968 104.559 48.984 104.303 49V48.496C104.623 48.496 104.887 48.424 105.095 48.28C105.303 48.12 105.319 47.92 105.143 47.68L98.7353 38.344C98.4153 37.88 98.1593 37.576 97.9673 37.432C97.7753 37.272 97.5353 37.176 97.2473 37.144V36.64C97.4073 36.656 97.6553 36.68 97.9913 36.712C98.3273 36.728 98.6473 36.736 98.9513 36.736C99.4633 36.736 99.9993 36.728 100.559 36.712C101.119 36.68 101.527 36.656 101.783 36.64ZM102.431 42.736C102.431 42.736 102.447 42.792 102.479 42.904C102.511 43 102.543 43.104 102.575 43.216C102.623 43.328 102.647 43.384 102.647 43.384L100.655 45.976C100.239 46.52 100.015 46.976 99.9833 47.344C99.9673 47.712 100.119 47.992 100.439 48.184C100.759 48.36 101.199 48.472 101.759 48.52V49C101.487 48.984 101.183 48.976 100.847 48.976C100.511 48.96 100.183 48.952 99.8633 48.952C99.5593 48.936 99.2793 48.928 99.0233 48.928C98.6553 48.928 98.3193 48.936 98.0153 48.952C97.7273 48.952 97.4553 48.968 97.1993 49V48.52C97.5033 48.488 97.8153 48.352 98.1353 48.112C98.4713 47.856 98.8633 47.432 99.3113 46.84L102.431 42.736ZM108.359 36.64V37.12C108.055 37.152 107.719 37.312 107.351 37.6C106.999 37.872 106.631 38.272 106.247 38.8L103.487 42.616C103.487 42.616 103.471 42.568 103.439 42.472C103.407 42.36 103.375 42.256 103.343 42.16C103.311 42.048 103.295 41.992 103.295 41.992L105.167 39.376C105.519 38.88 105.743 38.472 105.839 38.152C105.935 37.832 105.879 37.592 105.671 37.432C105.479 37.256 105.095 37.152 104.519 37.12V36.64C104.935 36.656 105.279 36.672 105.551 36.688C105.839 36.704 106.167 36.712 106.535 36.712C106.903 36.712 107.231 36.704 107.519 36.688C107.823 36.672 108.103 36.656 108.359 36.64ZM130.621 32.008V32.488C130.077 32.504 129.661 32.568 129.373 32.68C129.101 32.776 128.917 32.968 128.821 33.256C128.725 33.528 128.677 33.96 128.677 34.552V46.456C128.677 47.032 128.725 47.464 128.821 47.752C128.917 48.04 129.101 48.232 129.373 48.328C129.661 48.424 130.077 48.488 130.621 48.52V49C130.285 48.968 129.845 48.952 129.301 48.952C128.757 48.936 128.173 48.928 127.549 48.928C126.909 48.928 126.261 48.936 125.605 48.952C124.965 48.952 124.437 48.968 124.021 49V48.52C124.693 48.488 125.205 48.424 125.557 48.328C125.909 48.232 126.141 48.04 126.253 47.752C126.381 47.464 126.445 47.032 126.445 46.456V34.552C126.445 33.96 126.397 33.52 126.301 33.232C126.205 32.944 126.013 32.752 125.725 32.656C125.453 32.544 125.045 32.488 124.501 32.488H124.189C123.629 32.488 123.213 32.544 122.941 32.656C122.685 32.752 122.517 32.952 122.437 33.256C122.357 33.544 122.293 33.976 122.245 34.552C122.165 35.496 122.085 36.512 122.005 37.6C121.941 38.688 121.853 39.784 121.741 40.888C121.645 41.992 121.493 43.048 121.285 44.056C121.077 45.064 120.805 45.968 120.469 46.768C120.133 47.552 119.701 48.176 119.173 48.64C118.645 49.104 117.997 49.336 117.229 49.336C116.701 49.336 116.205 49.216 115.741 48.976C115.277 48.72 115.045 48.296 115.045 47.704C115.045 47.288 115.181 46.96 115.453 46.72C115.725 46.464 116.061 46.336 116.461 46.336C116.813 46.336 117.101 46.432 117.325 46.624C117.565 46.816 117.685 47.072 117.685 47.392C117.685 47.744 117.597 48.032 117.421 48.256C117.245 48.464 116.989 48.664 116.653 48.856C116.765 48.872 116.869 48.88 116.965 48.88C117.077 48.88 117.165 48.88 117.229 48.88C117.965 48.88 118.581 48.6 119.077 48.04C119.573 47.48 119.973 46.72 120.277 45.76C120.597 44.784 120.845 43.68 121.021 42.448C121.197 41.216 121.333 39.928 121.429 38.584C121.525 37.224 121.613 35.88 121.693 34.552C121.741 33.992 121.717 33.568 121.621 33.28C121.541 32.992 121.349 32.792 121.045 32.68C120.757 32.568 120.325 32.504 119.749 32.488V32.008C120.085 32.024 120.485 32.04 120.949 32.056C121.413 32.072 121.837 32.08 122.221 32.08C122.589 32.08 122.941 32.072 123.277 32.056C123.629 32.024 123.981 32.008 124.333 32.008C124.941 32.008 125.493 32.024 125.989 32.056C126.485 32.072 127.077 32.08 127.765 32.08C128.085 32.08 128.421 32.08 128.773 32.08C129.125 32.064 129.461 32.056 129.781 32.056C130.117 32.04 130.397 32.024 130.621 32.008ZM137.747 36.304C139.155 36.304 140.251 36.736 141.035 37.6C141.835 38.448 142.235 39.776 142.235 41.584H133.763L133.739 41.128H139.931C139.963 40.344 139.899 39.624 139.739 38.968C139.579 38.296 139.323 37.76 138.971 37.36C138.635 36.96 138.195 36.76 137.651 36.76C136.915 36.76 136.259 37.128 135.683 37.864C135.123 38.6 134.787 39.768 134.675 41.368L134.747 41.464C134.715 41.704 134.691 41.968 134.675 42.256C134.659 42.544 134.651 42.832 134.651 43.12C134.651 44.208 134.827 45.144 135.179 45.928C135.531 46.712 135.987 47.312 136.547 47.728C137.123 48.128 137.715 48.328 138.323 48.328C138.803 48.328 139.259 48.256 139.691 48.112C140.123 47.952 140.523 47.696 140.891 47.344C141.259 46.992 141.579 46.52 141.851 45.928L142.331 46.12C142.155 46.648 141.867 47.16 141.467 47.656C141.067 48.152 140.563 48.56 139.955 48.88C139.347 49.184 138.643 49.336 137.843 49.336C136.691 49.336 135.699 49.072 134.867 48.544C134.051 48.016 133.419 47.288 132.971 46.36C132.539 45.416 132.323 44.336 132.323 43.12C132.323 41.712 132.547 40.504 132.995 39.496C133.443 38.472 134.075 37.688 134.891 37.144C135.707 36.584 136.659 36.304 137.747 36.304ZM157.327 36.664V37.168C156.671 37.168 156.199 37.288 155.911 37.528C155.639 37.768 155.503 38.224 155.503 38.896V46.768C155.503 47.44 155.639 47.896 155.911 48.136C156.199 48.376 156.671 48.496 157.327 48.496V49C157.055 48.984 156.639 48.968 156.079 48.952C155.519 48.92 154.975 48.904 154.447 48.904C153.919 48.904 153.399 48.92 152.887 48.952C152.391 48.968 152.015 48.984 151.759 49V48.496C152.335 48.496 152.743 48.376 152.983 48.136C153.223 47.896 153.343 47.44 153.343 46.768V38.896C153.343 38.224 153.223 37.768 152.983 37.528C152.743 37.288 152.335 37.168 151.759 37.168V36.664C152.015 36.68 152.391 36.704 152.887 36.736C153.399 36.752 153.919 36.76 154.447 36.76C154.975 36.76 155.519 36.752 156.079 36.736C156.639 36.704 157.055 36.68 157.327 36.664ZM149.623 36.664V37.168C149.047 37.168 148.639 37.288 148.399 37.528C148.159 37.768 148.039 38.224 148.039 38.896V46.768C148.039 47.44 148.159 47.896 148.399 48.136C148.639 48.376 149.047 48.496 149.623 48.496V49C149.367 48.984 148.983 48.968 148.471 48.952C147.975 48.92 147.463 48.904 146.935 48.904C146.407 48.904 145.863 48.92 145.303 48.952C144.743 48.968 144.327 48.984 144.055 49V48.496C144.711 48.496 145.175 48.376 145.447 48.136C145.735 47.896 145.879 47.44 145.879 46.768V38.896C145.879 38.224 145.735 37.768 145.447 37.528C145.175 37.288 144.711 37.168 144.055 37.168V36.664C144.327 36.68 144.743 36.704 145.303 36.736C145.863 36.752 146.407 36.76 146.935 36.76C147.463 36.76 147.975 36.752 148.471 36.736C148.983 36.704 149.367 36.68 149.623 36.664ZM154.015 42.4V42.88H147.247V42.4H154.015ZM170.559 36.664C170.495 37.224 170.447 37.76 170.415 38.272C170.399 38.784 170.391 39.176 170.391 39.448C170.391 39.736 170.399 40.016 170.415 40.288C170.431 40.544 170.447 40.76 170.463 40.936H169.911C169.831 39.832 169.663 39.008 169.407 38.464C169.151 37.92 168.799 37.568 168.351 37.408C167.903 37.232 167.351 37.144 166.695 37.144H165.759V46.528C165.759 47.312 165.983 47.84 166.431 48.112C166.895 48.368 167.519 48.496 168.303 48.496V49C167.935 48.984 167.423 48.968 166.767 48.952C166.127 48.92 165.431 48.904 164.679 48.904C163.943 48.904 163.247 48.92 162.591 48.952C161.935 48.968 161.423 48.984 161.055 49V48.496C161.855 48.496 162.479 48.368 162.927 48.112C163.375 47.84 163.599 47.312 163.599 46.528V37.144H162.423C161.767 37.144 161.231 37.232 160.815 37.408C160.415 37.584 160.103 37.944 159.879 38.488C159.671 39.032 159.527 39.856 159.447 40.96H158.895C158.927 40.784 158.943 40.568 158.943 40.312C158.959 40.04 158.967 39.76 158.967 39.472C158.967 39.2 158.951 38.808 158.919 38.296C158.903 37.784 158.863 37.248 158.799 36.688H161.103C161.647 36.688 162.223 36.696 162.831 36.712C163.455 36.728 164.063 36.736 164.655 36.736C165.263 36.736 165.879 36.728 166.503 36.712C167.127 36.68 167.711 36.664 168.255 36.664H170.559Z" fill="black"/>
</svg>
